# xmcd
#
# Track frame offsets:
#	150
#	24035
#	44820
#	62932
#	80690
#	100612
#	117505
#	145050
#	169620
#	189575
#
# Disc length: 2759 seconds
#
# Revision: 1
# Processed by: cddbd v1.4b41PL2 Copyright (c) Steve Scherf et al.
# Submitted via: audiograbber 1.80
#
DISCID=840ac50a
DTITLE=Brian Knight with Jon McLoughlin, Steve Bray and Ray Bailey - Good Time 
DTITLE=Down The Road
DYEAR=1900
DGENRE=
TTITLE0=Hi Heel Sneekers
TTITLE1=Hoochie Coochie Man
TTITLE2=99 Years
TTITLE3=My Babe
TTITLE4=Good Time Down The Road
TTITLE5=Meet Me At The Bottom
TTITLE6=Honey Bee
TTITLE7=She Caught The Katy
TTITLE8=Any Way You Want Me To Do
TTITLE9=Tired Broke and Busted
EXTD=
EXTT0=
EXTT1=
EXTT2=
EXTT3=
EXTT4=
EXTT5=
EXTT6=
EXTT7=
EXTT8=
EXTT9=
PLAYORDER=
